<svg id="Layer_1" data-name="Layer 1" xmlns="http://www.w3.org/2000/svg" viewBox="0 0 1092 367"><defs><style>.cls-1{font-size:192px;fill:#2d2a29;letter-spacing:-0.04em;}.cls-1,.cls-4{font-family:TrebuchetMS, Trebuchet MS;}.cls-2{fill:#95c11f;}.cls-3{fill:#f96a00;}.cls-4{font-size:139.51px;fill:#fff;letter-spacing:-0.16em;}.cls-5{letter-spacing:-0.04em;}</style></defs><title>OT logo</title><text class="cls-1" transform="translate(128.77 249.4)">Orange</text><path class="cls-2" d="M225.53,96.43c6.43-13.55,3.7-29.42-18.8-41.08,3.59,12.81-14.87,26.48,3.06,52.08.47-.71,1-1.45,1.4-2.27.66-1.1,1.27-2.29,1.88-3.55s1.16-2.6,1.67-4A37,37,0,0,0,216,93.36a41,41,0,0,0,.82-4.4c.12-1.47.25-2.93.24-4.35a33.44,33.44,0,0,0-.27-4.09,32.63,32.63,0,0,0-.64-3.64l-.81-3c-.31-.89-.63-1.64-.87-2.28-.5-1.26-.78-2-.78-2l1,1.89c.31.6.72,1.32,1.14,2.18s.74,1.89,1.18,3a35.57,35.57,0,0,1,1.09,3.66,34.81,34.81,0,0,1,.77,4.22c.19,1.48.23,3,.28,4.6a40.36,40.36,0,0,1-.32,4.77A39,39,0,0,1,218,98.6c-.37,1.55-.8,3.05-1.29,4.48s-1,2.76-1.55,4c.33-.24.65-.49,1-.72a33.38,33.38,0,0,1,3.45-2,32.28,32.28,0,0,1,3.81-1.54,26.82,26.82,0,0,1,3.94-1l2-.29c.65-.07,1.29-.09,1.92-.14a33.19,33.19,0,0,1,3.61,0,31.43,31.43,0,0,1,3.18.36,24.91,24.91,0,0,1,2.65.52c.78.17,1.45.33,2,.51l1.72.52-1.77-.28c-.56-.1-1.25-.16-2-.23a25.8,25.8,0,0,0-2.63-.14c-1-.05-2,0-3.11.08a28.12,28.12,0,0,0-3.4.45c-.58.12-1.17.23-1.76.37L228,104a23.78,23.78,0,0,0-3.43,1.41,22.8,22.8,0,0,0-5.91,4c-.32.27-.61.56-.9.85l4.27-1.46c27.24,19.43,31.47-2.23,47,2.5C251.25,92.61,236.28,91.6,225.53,96.43Z"/><rect class="cls-3" x="703" y="132.48" width="251" height="131.8" rx="22.66"/><text class="cls-4" transform="translate(731.1 247.69)">T<tspan class="cls-5" x="58.04" y="0">ec</tspan></text></svg>